<svg xmlns="http://www.w3.org/2000/svg" viewBox="0 0 159.49 100.52" version="1.1" id="svg3892"><defs id="defs3848"><style id="style3846">.cls-1{fill:#fff}.cls-2{fill:#4a4b4a}</style></defs><g id="Ebene_2" data-name="Ebene 2"><g id="Ebene_2-2" data-name="Ebene 2"><circle class="cls-1" cx="29.42" cy="86.96" r="9.94" id="circle3850"/><circle class="cls-1" cx="127.9" cy="86.96" r="9.94" id="circle3852"/><circle class="cls-1" cx="29.42" cy="86.96" r="9.94" id="circle3854"/><circle class="cls-1" cx="127.9" cy="86.96" r="9.94" id="circle3856"/><path class="cls-1" d="M151.29 43.63c-7.23-9.45-23.95-24.27-26-25.83-2.85-2.45-4.79-3-9.3-3H10.53c-2.36 0-4.66 2-5.48 4.28 0 0-3.62 9.38-3.62 31.83h154a28.9 28.9 0 00-4.14-7.28zm-79-1.08a2.57 2.57 0 01-2.56 2.57H13.32a2.56 2.56 0 01-2.56-2.57V23.09a2.56 2.56 0 012.56-2.56h56.43a2.56 2.56 0 012.56 2.56zm66.15 2.57H95.77a2.6 2.6 0 01-2.57-2.64V23.16a2.6 2.6 0 012.57-2.63h21a7.52 7.52 0 014.93 2.08l18.64 18.11a2.65 2.65 0 01-1.88 4.4z" id="path3858"/><path class="cls-2" d="M29.26 73.62A13.08 13.08 0 1042.33 86.7a13.08 13.08 0 00-13.07-13.08zm0 19a5.94 5.94 0 115.94-5.92 5.94 5.94 0 01-5.94 5.94z" id="path3860"/><path class="cls-2" d="M127.81 73.62a13.08 13.08 0 1013.08 13.08 13.08 13.08 0 00-13.08-13.08zm0 19a5.94 5.94 0 115.94-5.94 5.94 5.94 0 01-5.94 5.96z" id="path3862"/><path class="cls-1" d="M15.4 77.82H3.31a2.33 2.33 0 00-2.56 2v3.68a2.36 2.36 0 002.57 2.07h9.53a18 18 0 012.55-7.75z" id="path3864"/><path class="cls-1" d="M156.17 77.82h-14.51a20.11 20.11 0 012.4 7.77h11.51a2.54 2.54 0 002.57-2.06c.18-.91.53-2.73.6-3.65.1-1.13-1.15-2.06-2.57-2.06z" id="path3866"/><path d="M156.4 77.81c3-4.69.39-23.93-1-26.91H1.51a229 229 0 001.81 26.92H15.4a16.45 16.45 0 0130.27 7.76h65.73a16.45 16.45 0 0130.26-7.76z" id="path3868" fill="#6bbbae"/><path class="cls-2" d="M1.81 11.15c58.77-2.32 59.65-2.32 128.16 0 0-6.58-51.88-6.71-69.28-6.71S1.81 7.13 1.81 11.15z" id="path3870"/><path class="cls-1" d="M51.15 20.57h18.09c1.54 0 3.23.72 3.23 3.46v17.91c0 .62-.44 3.19-2.75 3.19h-4.56S52.18 30.67 51.15 20.57z" id="path3872"/><path class="cls-1" d="M32.23 20.57H14A3.19 3.19 0 0010.8 24v18.53c0-1.54-.62 2.57 2.56 2.57s4.1.11 4.1.11S24 38 26.6 33s4.03-7.18 5.63-12.43z" id="path3874"/><path d="M69.79 19.78H13.4a3.32 3.32 0 00-3.31 3.31v19.45a3.32 3.32 0 003.31 3.31h56.39a3.31 3.31 0 003.31-3.31V23.09a3.32 3.32 0 00-3.31-3.31zM18.36 42.72l-.7.73-.42.41-.52.5H13.4a1.83 1.83 0 01-1.82-1.82V23.09a1.83 1.83 0 011.82-1.82h18a2.33 2.33 0 01-.05.28c0 .21-.1.42-.15.63s-.2.51-.2.82-.14.44-.22.67-.19.54-.3.81-.19.48-.29.72-.23.56-.36.84-.23.49-.34.74-.29.58-.43.88l-.39.76-.49.89-.43.77c-.17.3-.36.61-.54.91l-.45.76-.59.93-.47.74-.64 1-.47.69-.71 1c-.14.21-.29.41-.44.62s-.53.71-.8 1.06c-.12.16-.24.33-.37.49-.78 1-1.57 2-2.34 2.87l-.3.33c-.28.32-.56.64-.84.94zm.5 1.64c.19-.2.38-.41.58-.61l.4-.43c.33-.36.67-.73 1-1.12 0-.06.09-.1.13-.16.38-.44.77-.9 1.16-1.38l.39-.49c.27-.33.53-.66.79-1l.46-.6.72-1L25 37c.23-.32.46-.65.68-1s.32-.45.47-.68.45-.66.67-1l.45-.68.65-1 .4-.66.65-1.1.34-.6c.25-.45.48-.88.71-1.32l.2-.37c.29-.56.56-1.11.81-1.66.06-.12.11-.24.16-.37.19-.41.37-.82.53-1.22.08-.19.14-.37.21-.56s.25-.66.35-1 .13-.4.19-.6.17-.58.24-.86.09-.39.13-.58.07-.29.1-.43h17.62c0 .14.06.29.09.43s.09.43.14.65.13.53.2.8.13.46.2.7.18.56.28.84.16.48.25.72.23.59.35.89c.19.48.4 1 .62 1.46.12.28.24.56.38.85s.31.63.46.95l.36.72.52 1c.12.23.24.47.37.7l.56 1 .39.68.6 1 .39.64.63 1 .39.59c.22.33.44.67.67 1 .11.17.23.34.35.5l.71 1 .24.33c.91 1.24 1.8 2.39 2.67 3.41l.14.17.68.77c.09.09.17.2.26.29zm52.75-1.82a1.83 1.83 0 01-1.82 1.82h-4.25c-.21-.2-.42-.42-.64-.64a1 1 0 00-.14-.15c-.31-.34-.63-.69-1-1.07a66.55 66.55 0 01-5.4-7.38.56.56 0 00-.05-.08c-.33-.52-.65-1-1-1.57 0-.09-.1-.19-.16-.28-.28-.46-.55-.93-.81-1.4-.08-.13-.15-.26-.22-.39-.24-.43-.47-.86-.7-1.29l-.24-.48c-.21-.4-.41-.8-.6-1.19l-.25-.54-.5-1.1-.24-.58c-.15-.35-.28-.69-.41-1s-.15-.4-.22-.6-.22-.63-.32-.94-.13-.4-.18-.6-.16-.57-.23-.85-.09-.4-.13-.59 0-.21-.06-.31h17.7a1.82 1.82 0 011.82 1.81z" id="path3876"/><path d="M29.26 80a6.69 6.69 0 106.68 6.69A6.7 6.7 0 0029.26 80zm0 11.88a5.2 5.2 0 115.19-5.19 5.2 5.2 0 01-5.19 5.2z" id="path3878"/><path d="M29.26 72.88A13.82 13.82 0 1043.07 86.7a13.84 13.84 0 00-13.81-13.82zm0 26.14A12.33 12.33 0 1141.58 86.7 12.34 12.34 0 0129.26 99z" id="path3880"/><path d="M127.81 72.88a13.82 13.82 0 1013.82 13.82 13.84 13.84 0 00-13.82-13.82zm0 26.14a12.33 12.33 0 1112.33-12.32A12.34 12.34 0 01127.81 99z" id="path3882"/><path d="M127.81 80a6.69 6.69 0 106.69 6.69 6.69 6.69 0 00-6.69-6.69zm0 11.88A5.2 5.2 0 11133 86.7a5.2 5.2 0 01-5.19 5.19z" id="path3884"/><path d="M158.84 78.16a3.42 3.42 0 00-1.35-.85c2.56-6.18-.11-23.86-1.36-26.69a29.92 29.92 0 00-4.26-7.44c-7.36-9.63-24.31-24.59-26.05-25.93-2.91-2.5-5-3.18-9.78-3.18H105v-3.26c7.25.24 15.47.51 25 .84a.52.52 0 00.35-.14.55.55 0 00.15-.36c0-3.09-7.24-7.21-69.77-7.21-5.79 0-24.52.65-39.42 2.2a7.83 7.83 0 00-2.7-4.54A7.25 7.25 0 0013 .07a8.33 8.33 0 00-1.55.37.46.46 0 00-.3.43.45.45 0 00.31.43 6.77 6.77 0 014.45 5.45c-8.41 1.1-14.6 2.54-14.6 4.4a.55.55 0 00.15.36.55.55 0 00.37.14c7.61-.31 14.25-.57 20.2-.79v3.21H10.61c-2.88 0-5.33 2.45-6.18 4.75-.14.38-3.58 9.56-3.66 31.33v.75a214.72 214.72 0 001.64 25.47c0 .29.07.56.09.79a2.89 2.89 0 00-2.5 2.7v3.64a3.1 3.1 0 003.32 2.81h10.23v-.69a17.29 17.29 0 012.45-7.4 15.7 15.7 0 0128.89 7.41v.69h67.21v-.69a15.71 15.71 0 0128.9-7.42 19.5 19.5 0 012.28 7.44l.07.67h12.18a3.27 3.27 0 003.3-2.67c.35-1.77.56-3 .62-3.72a2.37 2.37 0 00-.61-1.77zM2.87 10.61c1.36-.79 6-2.34 21.91-3.83 13.53-1.26 28.1-1.84 35.92-1.84 55.56 0 67.23 3.35 68.62 5.69-33.74-1.14-51-1.72-67.08-1.72s-30.76.57-59.37 1.7zm99.07.11v3.35H25.05v-3.32c30.3-1.11 42.39-1.12 76.89-.03zM5.83 19.34c.68-1.86 2.66-3.78 4.78-3.78H116c4.43 0 6.16.55 8.84 2.85 1.75 1.35 18.53 16.15 25.81 25.68a27.58 27.58 0 013.62 6.06H2.26c.08-21.46 3.53-30.7 3.57-30.81zm6.34 65.48H3.32c-1 0-1.83-.6-1.83-1.32v-3.64c0-.71.82-1.29 1.82-1.29h10.83a18.55 18.55 0 00-1.97 6.25zM127.81 69.5a17.23 17.23 0 00-17.09 15.33H46.35A17.2 17.2 0 0015 77.07H4c0-.22-.06-.51-.1-.88a213.87 213.87 0 01-1.64-24.55h152.66c1.31 3.88 3.5 20.65 1.05 25.42h-13.91a17.22 17.22 0 00-14.25-7.56zm29.6 13.88a1.8 1.8 0 01-1.84 1.47h-10.85a22.72 22.72 0 00-1.79-6.28h13.24a2.14 2.14 0 011.57.61.82.82 0 01.26.64c0 .64-.26 1.87-.59 3.56z" id="path3886"/><path d="M122.27 22.1a8.23 8.23 0 00-5.45-2.3h-21a3.34 3.34 0 00-3.31 3.38v19.3a3.34 3.34 0 003.31 3.38h42.66a3.27 3.27 0 003-2 3.41 3.41 0 00-.57-3.72zm17.83 21.19a1.76 1.76 0 01-1.64 1.08H95.8a1.86 1.86 0 01-1.8-1.89v-19.3a1.86 1.86 0 011.82-1.89h21a6.76 6.76 0 014.4 1.87l18.59 18.06a1.89 1.89 0 01.29 2.07z" id="path3888"/></g></g></svg>